<svg version="1.1" xmlns="http://www.w3.org/2000/svg" style="display: block;" viewBox="0 0 2048 2048" width="1024" height="1024" preserveAspectRatio="none">
<defs>
	<linearGradient id="Gradient1" gradientUnits="userSpaceOnUse" x1="1228.19" y1="1006.59" x2="1211.14" y2="1008.49">
		<stop class="stop0" offset="0" stop-opacity="1" stop-color="rgb(0,0,0)"/>
		<stop class="stop1" offset="1" stop-opacity="1" stop-color="rgb(33,45,60)"/>
	</linearGradient>
	<linearGradient id="Gradient2" gradientUnits="userSpaceOnUse" x1="1125.81" y1="1107.66" x2="1050.69" y2="1041.77">
		<stop class="stop0" offset="0" stop-opacity="1" stop-color="rgb(0,0,4)"/>
		<stop class="stop1" offset="1" stop-opacity="1" stop-color="rgb(1,15,40)"/>
	</linearGradient>
	<linearGradient id="Gradient3" gradientUnits="userSpaceOnUse" x1="1126.7" y1="852.016" x2="1100.25" y2="736.066">
		<stop class="stop0" offset="0" stop-opacity="1" stop-color="rgb(23,20,23)"/>
		<stop class="stop1" offset="1" stop-opacity="1" stop-color="rgb(12,25,38)"/>
	</linearGradient>
	<linearGradient id="Gradient4" gradientUnits="userSpaceOnUse" x1="1275.12" y1="619.264" x2="1018.67" y2="536.423">
		<stop class="stop0" offset="0" stop-opacity="1" stop-color="rgb(155,167,177)"/>
		<stop class="stop1" offset="1" stop-opacity="1" stop-color="rgb(196,202,207)"/>
	</linearGradient>
</defs>
<path transform="translate(0,0)" fill="rgb(255,255,255)" d="M 0 0 L 2048 0 L 2048 2048 L 0 2048 L 0 0 z"/>
<path transform="translate(0,0)" fill="rgb(174,183,191)" d="M 779.186 118.289 C 789.052 117.13 818.166 117.919 829.725 117.942 L 932.532 117.904 L 1287 117.314 C 1288.5 154.809 1291.39 193.025 1293.52 230.589 L 1309.56 501.271 L 1320.79 693.144 C 1321.41 703.67 1325.4 783.021 1327.27 786.169 C 1325.07 792.241 1328.96 843.991 1330.46 852.671 C 1356.88 884.908 1333.96 906.113 1308.84 929.261 C 1303.01 933.993 1299.51 936.917 1293.1 940.726 C 1284.88 943.095 1274.71 941.458 1266.35 939.983 C 1230.44 929.075 1216.31 917.287 1173.83 909.552 C 1169.28 909.041 1149.71 906.343 1146.91 907.86 C 1147 910.974 1147.12 913.698 1147.38 916.802 C 1148.54 924.151 1147.21 935.244 1139.84 938.512 C 1111.61 951.034 1070.13 926.3 1056.3 903.562 C 1058.36 899.704 1059.22 886.346 1059.75 881.206 L 983.525 890.768 C 965.453 893.115 945.961 895.952 927.895 897.334 C 928.092 902.215 928.825 901.165 926.433 904.044 C 920.78 906.353 915.714 905.446 909.224 906.644 L 905.36 906.996 L 828.191 917.424 C 816.517 915.963 804.787 910.799 793.243 909.359 C 797.483 915.135 809.788 935.889 813.2 938.319 C 824.524 944.017 843.912 956.393 854.302 964.204 C 877.108 979.687 885.249 982.918 911.532 972.882 C 917.79 981.714 928.083 996.333 931.61 1006.36 L 937.261 1018.78 C 941.242 1029.4 946.671 1043.11 947.426 1054.28 C 944.867 1059.62 939.851 1063.4 935.704 1068.14 C 918.331 1088.3 883.792 1097.38 859.294 1106.12 C 847.892 1110.19 833.122 1115.59 821.804 1118.55 C 805.033 1113.23 801.349 1103.66 791.348 1091.09 C 766.173 1059.42 762.348 1028.34 759.304 989.425 L 754.88 932.95 C 746.027 925.372 732.433 916.26 722.367 910.386 L 636.21 887.746 C 620.015 883.441 598.583 878.283 582.969 872.903 C 585.299 864.736 588.214 857.984 594.535 852.189 C 595.098 848.48 592.422 810.299 592.063 804.592 L 584.453 683.957 C 574.191 525.625 562.683 364.499 554.804 206.198 C 628.024 176.887 705.529 146.299 779.186 118.289 z"/>
<path transform="translate(0,0)" fill="rgb(102,114,125)" d="M 779.186 118.289 C 781.583 121.582 782.318 146.794 782.664 152.573 L 789.232 267.808 L 818.919 766.728 C 819.8 782.433 826.616 914.567 828.191 917.424 C 816.517 915.963 804.787 910.799 793.243 909.359 C 797.483 915.135 809.788 935.889 813.2 938.319 C 824.524 944.017 843.912 956.393 854.302 964.204 C 877.108 979.687 885.249 982.918 911.532 972.882 C 917.79 981.714 928.083 996.333 931.61 1006.36 L 937.261 1018.78 C 941.242 1029.4 946.671 1043.11 947.426 1054.28 C 944.867 1059.62 939.851 1063.4 935.704 1068.14 C 918.331 1088.3 883.792 1097.38 859.294 1106.12 C 847.892 1110.19 833.122 1115.59 821.804 1118.55 C 805.033 1113.23 801.349 1103.66 791.348 1091.09 C 766.173 1059.42 762.348 1028.34 759.304 989.425 L 754.88 932.95 C 746.027 925.372 732.433 916.26 722.367 910.386 L 636.21 887.746 C 620.015 883.441 598.583 878.283 582.969 872.903 C 585.299 864.736 588.214 857.984 594.535 852.189 C 595.098 848.48 592.422 810.299 592.063 804.592 L 584.453 683.957 C 574.191 525.625 562.683 364.499 554.804 206.198 C 628.024 176.887 705.529 146.299 779.186 118.289 z"/>
<path transform="translate(0,0)" fill="rgb(39,56,76)" d="M 583.926 239.959 C 631.027 226.084 678.193 205.897 725.264 191.402 C 733.602 188.834 743.948 185.457 752.015 182.205 C 755.116 223.585 756.801 265.801 759.354 307.304 L 777.015 599.122 C 777.13 602.16 777.736 611.812 777.235 614.216 C 722.397 611.071 665.584 606.668 610.714 602.532 L 607.798 601.476 C 605.931 597.541 606.372 593.452 606.319 588.974 L 591.381 354.383 L 586.794 279.841 C 586.144 269.387 585.44 249.466 583.926 239.959 z"/>
<path transform="translate(0,0)" fill="rgb(255,255,255)" d="M 606.319 588.974 C 642.327 590.942 678.323 593.108 714.306 595.47 C 733.636 596.7 758.034 598.885 777.015 599.122 C 777.13 602.16 777.736 611.812 777.235 614.216 C 722.397 611.071 665.584 606.668 610.714 602.532 L 607.798 601.476 C 605.931 597.541 606.372 593.452 606.319 588.974 z"/>
<path transform="translate(0,0)" fill="rgb(39,56,76)" d="M 610.714 602.532 C 665.584 606.668 722.397 611.071 777.235 614.216 C 779.357 618.665 791.486 832.804 792.206 856.064 L 754.426 847.123 L 753.237 843.969 C 750.684 837.017 750.397 836.35 746.482 830.107 C 738.933 827.791 736.787 823.932 730.514 821.529 C 729.401 823.017 728.889 823.626 727.601 824.964 C 723.521 824.853 722.711 824.686 718.85 825.693 C 716.444 828.061 716.141 834.328 715.584 838.047 C 684.093 830.459 652.551 823.086 620.96 815.927 C 618.895 797.237 606.344 608.545 607.675 603.688 L 610.714 602.532 z"/>
<path transform="translate(0,0)" fill="rgb(219,120,97)" d="M 715.584 838.047 C 716.141 834.328 716.444 828.061 718.85 825.693 C 722.711 824.686 723.521 824.853 727.601 824.964 C 728.889 823.626 729.401 823.017 730.514 821.529 C 736.787 823.932 738.933 827.791 746.482 830.107 C 750.397 836.35 750.684 837.017 753.237 843.969 L 754.426 847.123 C 757.418 863.808 754.946 875.191 756.856 889.662 C 773.266 896.429 779.464 898.18 793.243 909.359 C 797.483 915.135 809.788 935.889 813.2 938.319 C 824.524 944.017 843.912 956.393 854.302 964.204 C 877.108 979.687 885.249 982.918 911.532 972.882 C 917.79 981.714 928.083 996.333 931.61 1006.36 L 937.261 1018.78 C 941.242 1029.4 946.671 1043.11 947.426 1054.28 C 944.867 1059.62 939.851 1063.4 935.704 1068.14 C 918.331 1088.3 883.792 1097.38 859.294 1106.12 C 847.892 1110.19 833.122 1115.59 821.804 1118.55 C 805.033 1113.23 801.349 1103.66 791.348 1091.09 C 766.173 1059.42 762.348 1028.34 759.304 989.425 L 754.88 932.95 C 746.027 925.372 732.433 916.26 722.367 910.386 C 720.916 908.514 712.722 901.875 710.263 899.724 C 709.713 895.185 709.471 890.163 709.144 885.563 C 709.385 867.875 711.065 855.106 715.584 838.047 z"/>
<path transform="translate(0,0)" fill="rgb(255,255,255)" d="M 813.2 938.319 C 824.524 944.017 843.912 956.393 854.302 964.204 C 850.98 969.717 848.355 974.011 845.606 979.843 L 840.603 976.175 C 833.388 965.007 818.878 949.116 813.2 938.319 z"/>
<path transform="translate(0,0)" fill="rgb(13,24,36)" d="M 931.61 1006.36 L 937.261 1018.78 C 916.978 1033.22 897.197 1033.78 874.619 1024.91 C 898.777 1026.86 915.048 1027.94 931.61 1006.36 z"/>
<path transform="translate(0,0)" fill="rgb(13,24,36)" d="M 840.603 976.175 L 845.606 979.843 C 846.232 981.49 850.579 988.036 851.869 990.413 C 862.031 1009.14 863.596 1023.91 861.783 1044.88 C 858.173 1032.8 858.157 1018.23 854.07 1005.64 C 850.953 996.039 842.806 985.108 840.603 976.175 z"/>
<path transform="translate(0,0)" fill="rgb(13,24,36)" d="M 594.535 852.189 C 632.56 863.324 671.307 874.057 709.144 885.563 C 709.471 890.163 709.713 895.185 710.263 899.724 C 712.722 901.875 720.916 908.514 722.367 910.386 L 636.21 887.746 C 620.015 883.441 598.583 878.283 582.969 872.903 C 585.299 864.736 588.214 857.984 594.535 852.189 z"/>
<path transform="translate(0,0)" fill="rgb(174,183,191)" d="M 779.186 118.289 C 789.052 117.13 818.166 117.919 829.725 117.942 L 932.532 117.904 L 1287 117.314 C 1288.5 154.809 1291.39 193.025 1293.52 230.589 L 1309.56 501.271 L 1320.79 693.144 C 1321.41 703.67 1325.4 783.021 1327.27 786.169 C 1325.07 792.241 1328.96 843.991 1330.46 852.671 C 1310.38 856.284 1288.6 857.842 1268.34 860.803 C 1263.15 861.563 1248.66 862.886 1244.17 864.174 L 1241.22 864.131 C 1232.71 731.136 1225.05 598.088 1218.24 464.995 L 1210.17 337.849 C 1208.55 313.258 1206.11 284.631 1205.98 260.083 C 1177.01 262.756 1130.52 261.733 1099.64 262.647 L 1004.12 264.726 C 961.601 265.907 914.566 267.611 872.05 267.178 C 873.715 284.781 874.241 304.949 875.173 322.828 L 880.749 425.416 L 899.057 737.855 C 902.323 793.368 904.727 851.379 909.224 906.644 L 905.36 906.996 L 828.191 917.424 C 826.616 914.567 819.8 782.433 818.919 766.728 L 789.232 267.808 L 782.664 152.573 C 782.318 146.794 781.583 121.582 779.186 118.289 z"/>
<path transform="translate(0,0)" fill="rgb(255,255,255)" d="M 868.855 264.072 C 981.829 263.227 1096.27 256.605 1208.99 256.938 C 1214.55 359.452 1220.71 461.932 1227.47 564.374 L 1232.9 664.197 C 1236.81 728.073 1242.69 800.503 1244.17 864.174 L 1241.22 864.131 C 1232.71 731.136 1225.05 598.088 1218.24 464.995 L 1210.17 337.849 C 1208.55 313.258 1206.11 284.631 1205.98 260.083 C 1177.01 262.756 1130.52 261.733 1099.64 262.647 L 1004.12 264.726 C 961.601 265.907 914.566 267.611 872.05 267.178 C 873.715 284.781 874.241 304.949 875.173 322.828 L 880.749 425.416 L 899.057 737.855 C 902.323 793.368 904.727 851.379 909.224 906.644 L 905.36 906.996 C 902.703 878.908 901.73 842.626 900.046 813.768 L 888.304 609.67 L 874.935 378.148 C 872.895 341.131 869.697 300.878 868.855 264.072 z"/>
<path transform="translate(0,0)" fill="rgb(255,255,255)" d="M 1178.82 165.536 L 1197.91 165.053 C 1197.86 187.664 1200.34 222.063 1201.64 245.072 C 1170.04 246.444 1138.99 246.622 1107.5 247.403 C 1040.33 249.403 973.147 250.965 905.956 252.088 L 888.688 252.825 C 887.443 224.774 885.267 195.969 884.806 167.999 C 982.815 167.986 1080.82 167.165 1178.82 165.536 z"/>
<path transform="translate(0,0)" fill="rgb(191,32,43)" d="M 901.466 176.233 C 917.605 174.455 944.002 175.389 960.138 177.224 C 964.672 177.74 966.182 238.525 963.727 243.248 C 957.216 244.054 909.587 245.823 904.969 242.568 C 901.41 234.047 900.276 186.875 901.466 176.233 z"/>
<path transform="translate(0,0)" fill="rgb(255,255,255)" d="M 922.475 182.332 L 924.629 182.676 C 927.257 186.612 927.731 217.464 927.972 223.935 L 942.994 223.986 C 943.287 228.965 944.352 232.525 941.52 235.939 L 937.25 236.178 L 915.193 235.768 C 914.749 222.794 912.619 195.599 913.489 183.977 C 915.811 182.358 919.451 182.548 922.475 182.332 z"/>
<path transform="translate(0,0)" fill="rgb(255,255,255)" d="M 936.464 201.3 C 940.52 201.975 940.304 201.253 942.637 203.601 C 942.67 207.444 942.202 210.722 946.588 211.735 C 948.905 209.604 947.976 210.07 950.736 208.896 C 955.229 213.661 957.479 212.396 956.438 220.743 C 955.914 224.942 956.346 230.664 956.583 234.978 C 953.337 237.21 951.346 237.033 948.88 234.534 C 947.373 229.227 948.029 224.494 948.294 218.934 L 934.869 220.104 C 934.884 213.904 935.776 207.48 936.464 201.3 z"/>
<path transform="translate(0,0)" fill="rgb(191,32,43)" d="M 1075.55 185.07 L 1089.23 185.338 C 1092.03 194.922 1094.97 204.465 1098.04 213.967 C 1099.61 205.142 1102.57 194.09 1104.68 185.206 L 1117.8 185.572 C 1118.88 192.934 1122.36 224.672 1118.59 228.799 C 1114.1 228.841 1114.8 229.558 1112 227.388 C 1109.6 221.943 1110.06 213.13 1109.83 206.752 L 1109.52 203.199 C 1105.23 203.213 1106.25 232.041 1095.7 228.842 C 1090.34 223.129 1086.91 206.537 1084.34 198.149 C 1083.82 206.105 1086.47 224.593 1081.5 229.507 C 1078.99 230.05 1079.14 230.149 1076.73 229.337 C 1073.93 221.901 1075.35 194.752 1075.55 185.07 z"/>
<path transform="translate(0,0)" fill="rgb(191,32,43)" d="M 1134.06 196.152 C 1138.01 195.995 1142.58 195.868 1145.96 198.162 C 1153.16 203.039 1155.52 221.026 1150.77 227.626 C 1143.87 228.03 1135.73 229.47 1129.51 228.335 C 1127.47 226.479 1124.98 223.733 1124.71 220.981 C 1123.25 206.069 1138.22 211.143 1141.94 206.199 C 1136.92 202.532 1131.28 206.209 1126.6 202.226 L 1127.09 200.014 C 1129.48 197.109 1130.46 197.155 1134.06 196.152 z"/>
<path transform="translate(0,0)" fill="rgb(255,206,221)" d="M 1135.62 215.285 C 1136.87 214.215 1138.61 213.943 1140.12 214.582 C 1141.64 215.22 1142.66 216.66 1142.76 218.299 C 1142.86 219.938 1142.03 221.494 1140.61 222.315 C 1138.67 223.433 1136.2 222.894 1134.91 221.071 C 1133.62 219.248 1133.93 216.741 1135.62 215.285 z"/>
<path transform="translate(0,0)" fill="rgb(191,32,43)" d="M 1159.28 195.897 C 1169.22 198.588 1177.53 192.525 1183.2 200.684 C 1187.9 207.428 1188.45 223.54 1181.3 228.845 L 1179.2 228.43 C 1174.74 223.004 1175.83 217.853 1175.95 210.75 C 1175.87 207.66 1176.09 207.728 1174.51 205.137 C 1170.63 203.751 1172.36 203.606 1169.11 204.532 C 1165.62 209.869 1169.44 217.633 1166.56 226.001 C 1163.78 228.711 1165.4 227.883 1161.45 228.447 L 1159.72 227.137 C 1156.68 220.964 1154.69 200.429 1159.28 195.897 z"/>
<path transform="translate(0,0)" fill="rgb(191,32,43)" d="M 979.671 185.761 C 983.347 185.541 986.961 184.916 989.678 186.959 C 990.989 196.836 990.854 210.915 991.048 221.174 C 996.13 221.189 1002.96 220.283 1006.81 222.54 C 1009 226.091 1008.23 225.817 1008.26 230.747 C 999.971 230.956 988.634 232.416 982.037 227.989 C 981.148 226.744 979.499 224.492 979.523 222.967 C 979.716 210.641 979.832 198.089 979.671 185.761 z"/>
<path transform="translate(0,0)" fill="rgb(191,32,43)" d="M 1030.08 230.153 C 1030.04 223.815 1030.34 212.659 1029.16 206.902 L 1024.95 204.572 C 1023.72 201.261 1023.79 202.873 1024.56 199.58 C 1027.11 198.416 1027.27 198.469 1029.34 196.657 C 1030.46 192.502 1030.64 190.122 1033.4 187.027 C 1037.19 185.02 1044.21 182.282 1047.59 186.025 C 1046.81 190.234 1042.99 192.553 1040.29 197.29 C 1042.19 198.757 1048.1 199.434 1051.07 200.056 C 1050.86 202.321 1050.72 203.051 1050.85 205.305 C 1047.55 205.952 1045.02 205.827 1041.66 205.91 C 1035.02 214.337 1044.96 220.216 1039.13 229.268 C 1035.18 231.247 1035.23 230.442 1030.08 230.153 z"/>
<path transform="translate(0,0)" fill="rgb(191,32,43)" d="M 1051.07 200.056 C 1051.75 196.25 1051.87 195.387 1051.83 191.55 C 1053.67 189.187 1057.88 188.366 1060.73 189.026 C 1063.52 193.096 1060.33 194.767 1063.39 198.532 C 1065.38 198.852 1067.18 199.089 1069.18 199.324 C 1070.66 201.895 1070.14 200.484 1069.77 204.027 C 1064.76 208.171 1065.19 203.62 1062.6 208.059 C 1062.53 219.622 1072.04 225.371 1068.06 230.599 C 1048.57 233.733 1055.23 213.341 1052.22 205.993 L 1050.85 205.305 C 1050.72 203.051 1050.86 202.321 1051.07 200.056 z"/>
<path transform="translate(0,0)" fill="rgb(191,32,43)" d="M 1011.95 198.051 C 1015.59 197.964 1016.45 198.02 1020.07 198.487 C 1022.74 201.962 1022.4 224.762 1022.51 230.421 C 1018.08 230.706 1018.07 231.394 1014.6 229.76 C 1010 222.578 1011.81 207.522 1011.95 198.051 z"/>
<path transform="translate(0,0)" fill="rgb(191,32,43)" d="M 1013.94 184.54 C 1016.66 183.427 1019.78 184.642 1021.03 187.301 C 1022.27 189.961 1021.22 193.132 1018.63 194.513 C 1016.83 195.47 1014.65 195.359 1012.96 194.223 C 1011.27 193.087 1010.34 191.112 1010.55 189.085 C 1010.75 187.059 1012.06 185.311 1013.94 184.54 z"/>
<path transform="translate(0,0)" fill="rgb(255,255,255)" d="M 1268.34 481.578 C 1272.26 481.206 1276.58 480.361 1280.03 481.929 C 1280.84 484.545 1282.12 511.862 1282.4 516.337 L 1288.4 612.598 C 1277.33 613.43 1266.28 614.43 1255.24 615.597 C 1251.85 615.984 1249.35 616.679 1246.29 615.371 C 1244.06 605.726 1242.76 564.357 1242.14 552.225 C 1240.98 529.786 1238.71 505.253 1237.99 483.057 C 1248.07 482.665 1258.31 482.385 1268.34 481.578 z"/>
<path transform="translate(0,0)" fill="rgb(13,24,36)" d="M 1255.33 490.559 L 1275.9 489.711 C 1276.55 507.071 1277.42 528.186 1279.25 545.235 C 1274.47 545.789 1268.75 545.924 1263.89 546.165 C 1258.51 546.838 1252.59 546.966 1247.14 547.221 C 1247.15 531.108 1245.49 507.347 1244.23 491.016 L 1255.33 490.559 z"/>
<path transform="translate(0,0)" fill="rgb(191,32,43)" d="M 1258.09 510.992 C 1262.38 510.63 1263.43 509.891 1266.53 512.609 C 1268.04 516.288 1267.08 521.445 1266.72 525.6 C 1263.61 525.8 1262.51 526.195 1259.94 524.462 C 1257.74 520.717 1258.2 515.583 1258.09 510.992 z"/>
<path transform="translate(0,0)" fill="rgb(13,24,36)" d="M 1265.47 572.383 C 1276.51 571.783 1276.81 581.647 1274.42 589.943 C 1272.19 591.36 1267.66 591.091 1264.75 591.176 L 1256.09 591.675 C 1256.09 585.788 1254.43 579.331 1256.69 574.559 C 1260.03 571.967 1260.35 572.807 1265.47 572.383 z"/>
<path transform="translate(0,0)" fill="rgb(255,255,255)" d="M 1264.66 575.317 L 1268.54 576.765 C 1272.26 582.353 1270.94 585.429 1265.6 588.72 L 1262.42 587.145 C 1260.4 584.672 1260.66 584.634 1260.16 581.405 C 1261.85 576.603 1260.57 578.2 1264.66 575.317 z"/>
<path transform="translate(0,0)" fill="url(#Gradient4)" d="M 1102.41 307.621 C 1114.56 306.526 1153.5 305.315 1165.61 305.762 C 1166.87 307.775 1167.11 309.968 1167.68 310.742 L 1190.73 697.072 L 1198.03 815.81 C 1198.94 829.651 1199.19 848.471 1200.84 861.349 C 1209.61 862.357 1221.49 868.349 1226.81 866.66 C 1231.62 865.865 1236.43 865.022 1241.22 864.131 L 1244.17 864.174 C 1248.66 862.886 1263.15 861.563 1268.34 860.803 C 1288.6 857.842 1310.38 856.284 1330.46 852.671 C 1356.88 884.908 1333.96 906.113 1308.84 929.261 C 1303.01 933.993 1299.51 936.917 1293.1 940.726 C 1284.88 943.095 1274.71 941.458 1266.35 939.983 C 1230.44 929.075 1216.31 917.287 1173.83 909.552 C 1169.28 909.041 1149.71 906.343 1146.91 907.86 C 1147 910.974 1147.12 913.698 1147.38 916.802 C 1148.54 924.151 1147.21 935.244 1139.84 938.512 C 1111.61 951.034 1070.13 926.3 1056.3 903.562 C 1058.36 899.704 1059.22 886.346 1059.75 881.206 L 1060.37 878.104 C 1059.85 870.81 1059.25 852.612 1057.32 846.016 C 1047.48 812.421 1040.18 793.015 1054.92 760.013 L 1055.77 757.436 C 1057.2 756.927 1058.09 756.634 1059.5 756.215 C 1057.93 704.484 1052.93 652.603 1050.44 600.916 C 1048.19 554.361 1044.75 507.735 1042.61 461.2 C 1043.58 452.336 1049.9 442.585 1053.05 433.601 C 1067.52 392.267 1088.93 348.907 1102.41 307.621 z"/>
<path transform="translate(0,0)" fill="rgb(219,120,97)" d="M 1059.5 756.215 C 1090.63 723.45 1128.93 741.966 1138.41 733.744 C 1139.41 730.086 1138.91 728.378 1138.43 724.649 C 1156.58 728.916 1181.47 736.022 1175.15 760.791 C 1173.41 767.623 1170.36 772.489 1164.12 776.104 C 1171.43 799.519 1172 841.076 1168.22 865.357 C 1179.12 864.241 1190 862.905 1200.84 861.349 C 1209.61 862.357 1221.49 868.349 1226.81 866.66 C 1231.62 865.865 1236.43 865.022 1241.22 864.131 L 1244.17 864.174 C 1248.66 862.886 1263.15 861.563 1268.34 860.803 C 1288.6 857.842 1310.38 856.284 1330.46 852.671 C 1356.88 884.908 1333.96 906.113 1308.84 929.261 C 1303.01 933.993 1299.51 936.917 1293.1 940.726 C 1284.88 943.095 1274.71 941.458 1266.35 939.983 C 1230.44 929.075 1216.31 917.287 1173.83 909.552 C 1169.28 909.041 1149.71 906.343 1146.91 907.86 C 1147 910.974 1147.12 913.698 1147.38 916.802 C 1148.54 924.151 1147.21 935.244 1139.84 938.512 C 1111.61 951.034 1070.13 926.3 1056.3 903.562 C 1058.36 899.704 1059.22 886.346 1059.75 881.206 L 1060.37 878.104 C 1059.85 870.81 1059.25 852.612 1057.32 846.016 C 1047.48 812.421 1040.18 793.015 1054.92 760.013 L 1055.77 757.436 C 1057.2 756.927 1058.09 756.634 1059.5 756.215 z"/>
<path transform="translate(0,0)" fill="rgb(13,24,36)" d="M 1330.46 852.671 C 1356.88 884.908 1333.96 906.113 1308.84 929.261 C 1303.01 933.993 1299.51 936.917 1293.1 940.726 C 1284.88 943.095 1274.71 941.458 1266.35 939.983 C 1230.44 929.075 1216.31 917.287 1173.83 909.552 C 1169.28 909.041 1149.71 906.343 1146.91 907.86 C 1147 910.974 1147.12 913.698 1147.38 916.802 C 1124.15 922.044 1071.52 871.684 1080.39 858.054 C 1083.23 861.028 1084.64 870.391 1086.53 872.429 C 1100.74 887.809 1140.24 902.88 1160.09 892.997 C 1164.3 890.9 1167.13 871.342 1168.22 865.357 C 1179.12 864.241 1190 862.905 1200.84 861.349 C 1209.61 862.357 1221.49 868.349 1226.81 866.66 C 1231.62 865.865 1236.43 865.022 1241.22 864.131 L 1244.17 864.174 C 1248.66 862.886 1263.15 861.563 1268.34 860.803 C 1288.6 857.842 1310.38 856.284 1330.46 852.671 z"/>
<path transform="translate(0,0)" fill="url(#Gradient3)" d="M 1059.5 756.215 C 1090.63 723.45 1128.93 741.966 1138.41 733.744 C 1139.41 730.086 1138.91 728.378 1138.43 724.649 C 1156.58 728.916 1181.47 736.022 1175.15 760.791 C 1173.41 767.623 1170.36 772.489 1164.12 776.104 L 1162.81 776.469 C 1150.72 779.711 1137.93 778.162 1125.96 775.107 C 1103.3 769.326 1080.84 766.917 1100.1 797.506 C 1096.15 801.463 1092.81 804.493 1089.66 809.139 C 1089.82 813.545 1091.38 827.279 1089.82 829.742 C 1086.34 831.323 1086.32 831.104 1082.64 830.829 C 1076.47 827.011 1078.46 811.987 1066.77 809.694 C 1046.96 814.791 1058.27 837.708 1067.62 847.564 C 1063.55 859.287 1062.11 865.787 1060.37 878.104 C 1059.85 870.81 1059.25 852.612 1057.32 846.016 C 1047.48 812.421 1040.18 793.015 1054.92 760.013 L 1055.77 757.436 C 1057.2 756.927 1058.09 756.634 1059.5 756.215 z"/>
<path transform="translate(0,0)" fill="rgb(196,202,207)" d="M 1037.05 476.965 C 1039.21 494.333 1039.98 515.769 1040.52 533.581 C 1042.05 584.242 1048.64 636.849 1049.25 687.255 C 1052.37 700.716 1051.77 753.191 1054.92 760.013 C 1040.18 793.015 1047.48 812.421 1057.32 846.016 C 1059.25 852.612 1059.85 870.81 1060.37 878.104 L 1059.75 881.206 L 983.525 890.768 C 965.453 893.115 945.961 895.952 927.895 897.334 C 926.757 893.472 924.965 853.891 924.663 847.837 L 919.862 762.866 C 922.898 757.313 927.385 746.177 930.127 739.845 C 938.567 720.141 946.714 700.313 954.565 680.367 L 1019.71 517.656 C 1022.54 510.679 1034.13 479.758 1037.05 476.965 z"/>
<path transform="translate(0,0)" fill="rgb(174,183,191)" d="M 1049.25 687.255 C 1052.37 700.716 1051.77 753.191 1054.92 760.013 C 1040.18 793.015 1047.48 812.421 1057.32 846.016 C 1059.25 852.612 1059.85 870.81 1060.37 878.104 L 1059.75 881.206 L 983.525 890.768 C 984.653 883.175 994.084 858.552 997.026 849.671 L 1036.07 733.895 C 1041.27 718.884 1047.65 702.94 1049.25 687.255 z"/>
<path transform="translate(0,0)" fill="rgb(39,56,76)" d="M 893.057 295.881 C 892.981 291.593 892.176 290.415 894.08 287.531 C 899.005 286.444 914.796 286.421 920.97 286.265 L 975.642 284.912 C 1047.48 283.275 1119.32 281.273 1191.14 278.905 L 1215.52 695.492 L 1222.24 809.609 C 1222.74 818.163 1224.45 863.237 1226.81 866.66 C 1221.49 868.349 1209.61 862.357 1200.84 861.349 C 1199.19 848.471 1198.94 829.651 1198.03 815.81 L 1190.73 697.072 L 1167.68 310.742 C 1167.11 309.968 1166.87 307.775 1165.61 305.762 C 1153.5 305.315 1114.56 306.526 1102.41 307.621 C 1088.93 348.907 1067.52 392.267 1053.05 433.601 C 1049.9 442.585 1043.58 452.336 1042.61 461.2 C 1044.75 507.735 1048.19 554.361 1050.44 600.916 C 1052.93 652.603 1057.93 704.484 1059.5 756.215 C 1058.09 756.634 1057.2 756.927 1055.77 757.436 L 1054.92 760.013 C 1051.77 753.191 1052.37 700.716 1049.25 687.255 C 1048.64 636.849 1042.05 584.242 1040.52 533.581 C 1039.98 515.769 1039.21 494.333 1037.05 476.965 C 1037.23 462.006 1034.96 437.507 1034.05 421.998 L 1027.9 310.448 L 1027.39 293.19 C 985.19 294.087 934.169 296.801 893.057 295.881 z"/>
<path transform="translate(0,0)" fill="rgb(174,183,191)" d="M 1033.87 310.099 C 1051.57 310.361 1084.86 309.062 1102.41 307.621 C 1088.93 348.907 1067.52 392.267 1053.05 433.601 C 1049.9 442.585 1043.58 452.336 1042.61 461.2 C 1042.05 454.151 1041.69 446.775 1041.36 439.705 C 1039.38 396.573 1035.25 353.216 1033.87 310.099 z"/>
<path transform="translate(0,0)" fill="rgb(127,140,147)" d="M 1033.07 293.171 L 1166.87 289.753 C 1166.96 292.189 1167.87 309.159 1167.68 310.742 C 1167.11 309.968 1166.87 307.775 1165.61 305.762 C 1153.5 305.315 1114.56 306.526 1102.41 307.621 C 1084.86 309.062 1051.57 310.361 1033.87 310.099 C 1033.53 304.414 1033.14 298.872 1033.07 293.171 z"/>
<path transform="translate(0,0)" fill="rgb(127,140,147)" d="M 893.057 295.881 C 934.169 296.801 985.19 294.087 1027.39 293.19 L 1027.9 310.448 C 983.28 311.148 938.67 312.315 894.077 313.947 C 893.978 307.122 893.879 302.637 893.057 295.881 z"/>
<path transform="translate(0,0)" fill="rgb(13,24,36)" d="M 967.835 1210.21 C 1015.25 1224.16 1120.56 1233.56 1174.18 1217.49 C 1174.41 1217.34 1174.65 1217.19 1174.88 1217.03 C 1173.52 1225.32 1172.9 1245.46 1174.19 1253.75 C 1178.5 1266.38 1184.04 1278.42 1188.48 1291.42 C 1216.16 1372.43 1241.92 1456.13 1251.58 1541.5 C 1253.42 1557.75 1251.49 1582.58 1250.9 1599.29 L 1246.92 1694.32 C 1246.53 1702.87 1244.06 1739.49 1245.78 1744.81 C 1246.22 1745.4 1246.65 1746 1247.09 1746.59 C 1248.1 1774.55 1248.77 1811.04 1250.37 1838.04 C 1256.47 1844.62 1278.19 1864.85 1286.03 1867.42 C 1317.98 1877.89 1340.4 1865.47 1342.13 1912.68 L 1593.31 1912.63 L 1660.94 1912.57 C 1673.23 1912.56 1685.47 1912.13 1697.7 1913.31 C 1709.57 1914.46 1708.25 1928.61 1698.84 1931.31 C 1694.01 1932.69 1685.68 1931.05 1680.49 1931.55 C 1669.8 1931.64 1658.95 1931.52 1648.2 1931.52 L 1481.89 1931.61 L 708.703 1931.69 L 471.025 1931.73 L 397.001 1931.5 C 388.107 1931.48 348.611 1936.37 358.217 1916.46 C 362.236 1913.16 365.964 1912.93 371.241 1912.82 C 389.431 1912.45 407.964 1912.63 426.155 1912.66 L 526.877 1912.72 L 832.421 1912.76 C 833.189 1881.45 842.739 1887.41 848.887 1860.79 C 849.611 1857.66 850.375 1832.93 850.58 1828.27 C 851.407 1809.67 852.367 1791.07 853.459 1772.48 C 853.801 1766.57 854.4 1751.02 855.76 1745.74 L 857.904 1744.77 C 862.361 1709.73 856.703 1669.92 870.742 1634.94 C 876.746 1619.99 883.621 1608.76 891.59 1595.27 C 897.854 1584.66 911.644 1566.95 913.614 1555.76 C 915.37 1545.78 916.782 1531.38 917.865 1521.1 L 924.104 1461.61 L 930.783 1401.94 C 933.212 1380.65 936.379 1363.14 931.842 1341.82 C 922.765 1299.18 939.115 1264.27 960.587 1228.68 C 963.843 1223.28 966.104 1217.65 967.542 1211.52 L 967.835 1210.21 z"/>
<path transform="translate(0,0)" fill="rgb(49,107,171)" d="M 967.835 1210.21 C 1015.25 1224.16 1120.56 1233.56 1174.18 1217.49 C 1174.41 1217.34 1174.65 1217.19 1174.88 1217.03 C 1173.52 1225.32 1172.9 1245.46 1174.19 1253.75 C 1155.7 1260.39 1154.89 1298.54 1147.71 1315.94 C 1133.89 1332.73 1110.65 1347.43 1093.63 1360.93 C 1091.27 1368.01 1075.63 1416.26 1076.32 1419.87 C 1073.65 1424.84 1059.48 1468.53 1056.7 1476.62 C 1043.06 1515.72 1028.91 1554.63 1014.24 1593.35 L 972.167 1699.48 C 969.121 1707.13 955.66 1739.3 955.012 1745.14 C 935.462 1744.44 910.11 1744.61 890.488 1745.19 L 885.841 1745.35 C 877.558 1744.51 866.428 1744.79 857.904 1744.77 C 862.361 1709.73 856.703 1669.92 870.742 1634.94 C 876.746 1619.99 883.621 1608.76 891.59 1595.27 C 897.854 1584.66 911.644 1566.95 913.614 1555.76 C 915.37 1545.78 916.782 1531.38 917.865 1521.1 L 924.104 1461.61 L 930.783 1401.94 C 933.212 1380.65 936.379 1363.14 931.842 1341.82 C 922.765 1299.18 939.115 1264.27 960.587 1228.68 C 963.843 1223.28 966.104 1217.65 967.542 1211.52 L 967.835 1210.21 z"/>
<path transform="translate(0,0)" fill="rgb(8,27,54)" d="M 885.841 1745.35 C 892.801 1704.99 899.094 1663.36 908.668 1623.46 C 912.583 1607.14 928.236 1582.55 930.458 1568.54 C 934.383 1543.78 937.434 1516.66 940.491 1491.69 L 957.666 1354.91 C 958.432 1348.79 965.39 1300.3 964.145 1298.22 L 960.784 1296.96 L 960.623 1295.4 C 966.832 1290.37 973.758 1288.42 979.588 1284.43 C 995.772 1273.35 1009.56 1259.42 1019.01 1242.33 L 1021.07 1241.23 L 1023.55 1242.22 C 1024.1 1245.26 1018.11 1253.12 1016.1 1256.1 C 1004.35 1273.53 988.393 1285.19 970.321 1295.53 C 957.161 1387.87 948.332 1481.26 934.479 1573.54 C 931.029 1590.51 919.077 1606.07 914.357 1622.43 C 908.184 1643.84 904.187 1666.93 900.466 1688.94 C 897.36 1707.31 892.922 1726.83 890.488 1745.19 L 885.841 1745.35 z"/>
<path transform="translate(0,0)" fill="rgb(8,27,54)" d="M 938.488 1599.84 C 941.429 1601.99 945.415 1606.07 948.31 1608.6 C 967.962 1625.72 980.594 1622.36 1003.49 1614.97 C 1000.23 1618.3 997.404 1620.7 993.895 1623.71 C 973.324 1637 959.271 1639.7 945.713 1615.76 C 942.646 1610.34 939.5 1606.28 938.488 1599.84 z"/>
<path transform="translate(0,0)" fill="rgb(255,255,255)" d="M 955.012 1745.14 C 955.66 1739.3 969.121 1707.13 972.167 1699.48 L 1014.24 1593.35 C 1028.91 1554.63 1043.06 1515.72 1056.7 1476.62 C 1059.48 1468.53 1073.65 1424.84 1076.32 1419.87 C 1083.86 1438.32 1092.28 1456.38 1101.57 1474.01 C 1114.58 1502.1 1130.24 1531.65 1144.32 1559.37 C 1133.14 1607.15 1123.35 1648.59 1139.21 1696.38 C 1141.17 1702.25 1153.73 1742.04 1153.12 1744.84 C 1149.72 1759.3 1180.07 1841.65 1175.78 1863.07 C 1172.85 1877.72 1171.82 1897.99 1171.87 1912.85 L 935.101 1912.4 C 934.986 1883.41 918.444 1875.43 919.949 1865.32 C 925.209 1829.98 946.601 1779.83 955.012 1745.14 z"/>
<path transform="translate(0,0)" fill="rgb(39,56,76)" d="M 1174.19 1253.75 C 1178.5 1266.38 1184.04 1278.42 1188.48 1291.42 C 1216.16 1372.43 1241.92 1456.13 1251.58 1541.5 C 1253.42 1557.75 1251.49 1582.58 1250.9 1599.29 L 1246.92 1694.32 C 1246.53 1702.87 1244.06 1739.49 1245.78 1744.81 C 1224.27 1745.32 1202.01 1744.92 1180.44 1744.81 C 1176.34 1708.41 1163.97 1668.38 1162.25 1631.89 C 1161.25 1610.8 1169.15 1573.95 1172.73 1552.34 L 1117.01 1433.4 C 1121.34 1413.72 1149.62 1329.3 1147.71 1315.94 C 1154.89 1298.54 1155.7 1260.39 1174.19 1253.75 z"/>
<path transform="translate(0,0)" fill="rgb(39,56,76)" d="M 1114.21 1439.45 C 1124.17 1457.87 1133.25 1478.88 1142.09 1498.05 C 1149.93 1515.08 1160.34 1534.98 1167.36 1551.97 C 1164.82 1575.65 1159.15 1600.13 1158.04 1624.11 C 1157.01 1646.19 1162.3 1670.68 1166.35 1692.48 C 1169.55 1709.84 1172.63 1727.23 1175.58 1744.64 L 1153.12 1744.84 C 1153.73 1742.04 1141.17 1702.25 1139.21 1696.38 C 1123.35 1648.59 1133.14 1607.15 1144.32 1559.37 C 1130.24 1531.65 1114.58 1502.1 1101.57 1474.01 C 1104.26 1471.77 1112.25 1445.03 1114.21 1439.45 z"/>
<path transform="translate(0,0)" fill="rgb(49,107,171)" d="M 1056.3 903.562 C 1070.13 926.3 1111.61 951.034 1139.84 938.512 C 1147.21 935.244 1148.54 924.151 1147.38 916.802 C 1147.12 913.698 1147 910.974 1146.91 907.86 C 1149.71 906.343 1169.28 909.041 1173.83 909.552 C 1173.98 909.976 1174.13 910.4 1174.28 910.825 C 1175.77 914.923 1179.86 918.971 1181.99 923.267 C 1213.69 987.493 1230.68 1056.11 1186.32 1118.99 C 1183.5 1122.99 1174.97 1208.34 1174.88 1217.03 C 1174.65 1217.19 1174.41 1217.34 1174.18 1217.49 C 1120.56 1233.56 1015.25 1224.16 967.835 1210.21 L 968.676 1205.37 C 968.694 1196.7 964.26 1177.03 962.387 1167.92 C 957.935 1145.73 951.493 1124.13 947.011 1102.33 C 945.729 1096.27 938.046 1075.09 935.704 1068.14 C 939.851 1063.4 944.867 1059.62 947.426 1054.28 C 946.671 1043.11 941.242 1029.4 937.261 1018.78 L 931.61 1006.36 C 928.083 996.333 917.79 981.714 911.532 972.882 C 949.169 955.091 986.461 936.161 1024.14 918.19 C 1031.05 914.462 1044.06 907.988 1051.4 905.425 L 1056.3 903.562 z"/>
<path transform="translate(0,0)" fill="rgb(255,255,255)" d="M 1024.14 918.19 C 1041.87 956.364 1041.42 997.895 1027.69 1037.52 C 1018.5 1064.02 1003.73 1079.4 978.065 1091.35 C 977.306 1091.7 976.541 1092.04 975.772 1092.37 L 975.272 1092.76 C 967.724 1095.73 954.586 1101.23 947.011 1102.33 C 945.729 1096.27 938.046 1075.09 935.704 1068.14 C 939.851 1063.4 944.867 1059.62 947.426 1054.28 C 946.671 1043.11 941.242 1029.4 937.261 1018.78 L 931.61 1006.36 C 928.083 996.333 917.79 981.714 911.532 972.882 C 949.169 955.091 986.461 936.161 1024.14 918.19 z"/>
<path transform="translate(0,0)" fill="rgb(127,140,147)" d="M 971.229 1019.99 C 969.136 1042.43 966.903 1070.81 975.772 1092.37 L 975.272 1092.76 C 967.724 1095.73 954.586 1101.23 947.011 1102.33 C 945.729 1096.27 938.046 1075.09 935.704 1068.14 C 939.851 1063.4 944.867 1059.62 947.426 1054.28 C 949.436 1050.85 951.206 1047.89 953.407 1044.58 C 958.048 1043.53 968.473 1024.5 971.229 1019.99 z"/>
<path transform="translate(0,0)" fill="rgb(39,56,76)" d="M 972.715 1016.01 C 972.758 1015.44 980.324 991.779 980.597 991.258 C 980.238 1010.86 992.606 1022.23 1006.83 1034.19 C 997.079 1029.56 980.743 1022.45 972.715 1016.01 z"/>
<path transform="translate(0,0)" fill="rgb(13,24,36)" d="M 980.501 974.733 C 981.123 980.427 980.781 985.548 980.597 991.258 C 980.324 991.779 972.758 1015.44 972.715 1016.01 L 971.229 1019.99 C 968.473 1024.5 958.048 1043.53 953.407 1044.58 C 969.393 1016.29 973.677 1006.21 980.501 974.733 z"/>
<path transform="translate(0,0)" fill="rgb(255,255,255)" d="M 1056.3 903.562 C 1070.13 926.3 1111.61 951.034 1139.84 938.512 C 1147.21 935.244 1148.54 924.151 1147.38 916.802 L 1148.44 914.638 L 1149.79 915.243 C 1161.77 931.434 1170.42 968.509 1174.09 988.662 C 1144.4 988.193 1113.38 988.684 1083.58 988.711 C 1076.1 958.794 1066.82 932.316 1051.4 905.425 L 1056.3 903.562 z"/>
<path transform="translate(0,0)" fill="rgb(8,27,54)" d="M 947.011 1102.33 C 954.586 1101.23 967.724 1095.73 975.272 1092.76 C 982.389 1116.22 1004.62 1138.32 1022.23 1154.67 C 1005.3 1145.55 992.224 1138.41 976.862 1126.29 C 987.126 1158.92 1004.39 1171.08 1033.16 1189.42 C 1021.66 1186.41 1010.29 1182.93 999.071 1179 C 989.885 1175.87 971.228 1168.16 962.387 1167.92 C 957.935 1145.73 951.493 1124.13 947.011 1102.33 z"/>
<path transform="translate(0,0)" fill="rgb(8,27,54)" d="M 968.676 1205.37 C 1014.03 1218.95 1070.58 1221.77 1117.74 1220.39 C 1134.95 1219.89 1152.16 1217.52 1169.04 1214.51 C 1171.51 1214.07 1171.97 1214.1 1174.08 1215.16 L 1174.88 1217.03 C 1174.65 1217.19 1174.41 1217.34 1174.18 1217.49 C 1120.56 1233.56 1015.25 1224.16 967.835 1210.21 L 968.676 1205.37 z"/>
<path transform="translate(0,0)" fill="url(#Gradient2)" d="M 1052.89 1035.37 C 1077.17 1035.29 1100.1 1036.21 1124.67 1035.41 C 1125.32 1060.12 1124.51 1089.21 1124.8 1114.67 C 1121.48 1115.12 1107.16 1114.9 1103.32 1114.87 C 1086.52 1114.74 1069.83 1114.44 1053.01 1114.51 L 1052.89 1035.37 z"/>
<path transform="translate(0,0)" fill="rgb(49,107,171)" d="M 1057.56 1040.49 C 1078.47 1040.19 1099.39 1040.06 1120.31 1040.1 C 1119.69 1059.23 1122.06 1092.77 1119.93 1110.17 C 1099.09 1110.08 1078.25 1110.1 1057.41 1110.22 C 1058.14 1087.15 1056.86 1063.86 1057.56 1040.49 z"/>
<path transform="translate(0,0)" fill="rgb(219,120,97)" d="M 1327.27 786.169 C 1343.02 806.46 1349.27 812.544 1350.13 839.645 C 1350.42 848.597 1351.08 856.934 1353.87 865.485 C 1371.9 920.781 1403.34 963.547 1395.79 1025.07 C 1394.41 1036.29 1392.6 1059.15 1383.27 1066.63 C 1372.37 1075.37 1289.6 1076.06 1272.11 1073.45 C 1255.3 1071.03 1239.29 1064.71 1225.36 1054.99 C 1231.51 1043.85 1237.48 1032.62 1243.27 1021.29 L 1247.63 1010.35 C 1257.37 981.461 1261.43 971.43 1266.35 939.983 C 1274.71 941.458 1284.88 943.095 1293.1 940.726 C 1299.51 936.917 1303.01 933.993 1308.84 929.261 C 1333.96 906.113 1356.88 884.908 1330.46 852.671 C 1328.96 843.991 1325.07 792.241 1327.27 786.169 z"/>
<path transform="translate(0,0)" fill="rgb(13,24,36)" d="M 1247.63 1010.35 C 1268.43 1018.7 1284.9 1012.06 1304.43 1005.2 C 1290.32 1017.08 1261.15 1029.99 1243.27 1021.29 L 1247.63 1010.35 z"/>
<path transform="translate(0,0)" fill="rgb(255,255,255)" d="M 1308.84 929.261 C 1310.31 932.841 1308.16 944.657 1307.6 949.352 C 1301.57 944.991 1299.87 943.748 1293.1 940.726 C 1299.51 936.917 1303.01 933.993 1308.84 929.261 z"/>
<path transform="translate(0,0)" fill="rgb(13,24,36)" d="M 1307.29 948.643 C 1309.62 950.696 1308.45 957.358 1308.39 961.136 C 1308.1 977.932 1313.28 991.349 1318.93 1006.83 C 1305.5 996.5 1301.87 963.977 1307.29 948.643 z"/>
<path transform="translate(0,0)" fill="rgb(13,24,36)" d="M 1059.75 881.206 C 1059.22 886.346 1058.36 899.704 1056.3 903.562 L 1051.4 905.425 C 1044.06 907.988 1031.05 914.462 1024.14 918.19 C 986.461 936.161 949.169 955.091 911.532 972.882 C 885.249 982.918 877.108 979.687 854.302 964.204 C 843.912 956.393 824.524 944.017 813.2 938.319 C 809.788 935.889 797.483 915.135 793.243 909.359 C 804.787 910.799 816.517 915.963 828.191 917.424 L 905.36 906.996 L 909.224 906.644 C 915.714 905.446 920.78 906.353 926.433 904.044 C 928.825 901.165 928.092 902.215 927.895 897.334 C 945.961 895.952 965.453 893.115 983.525 890.768 L 1059.75 881.206 z"/>
<path transform="translate(0,0)" fill="url(#Gradient1)" d="M 1221.4 961.411 C 1223.27 962.799 1223.91 963.449 1224.49 966.139 C 1229.97 991.74 1230.41 1032.81 1216.92 1055.58 L 1216.35 1056.33 L 1215.4 1056.12 C 1215.19 1052.62 1221.6 1026.07 1222.57 1015.63 C 1224.72 992.467 1221.56 982.507 1221.4 962.239 L 1221.4 961.411 z"/>
</svg>